<svg width="160" height="48" viewBox="0 0 160 48" fill="none" xmlns="http://www.w3.org/2000/svg">
  <rect width="160" height="48" rx="10" fill="url(#paint0_linear)"/>
  <path d="M35 14H45V20H40V24H45V30H40V36H35V14Z" fill="white" filter="url(#shadow)"/>
  <path d="M50 14H60V20H55V24H60V30H55V36H50V14Z" fill="white" filter="url(#shadow)"/>
  <path d="M70 14H80L75 24L80 36H70V14Z" fill="white" filter="url(#shadow)"/>
  <path d="M90 14H95L100 24L95 36H90V30H92.5L95 24L92.5 18H90V14Z" fill="white" filter="url(#shadow)"/>
  <path d="M110 14H120V20H115V22.5H120V27.5H115V30H120V36H110V14Z" fill="white" filter="url(#shadow)"/>
  <defs>
    <linearGradient id="paint0_linear" x1="0" y1="0" x2="160" y2="48" gradientUnits="userSpaceOnUse">
      <stop stopColor="#FF4B2B"/>
      <stop offset="1" stopColor="#FF416C"/>
    </linearGradient>
    <filter id="shadow" x="-2" y="-2" width="164" height="52" filterUnits="userSpaceOnUse">
      <feDropShadow dx="0" dy="1" stdDeviation="1" floodOpacity="0.3"/>
    </filter>
  </defs>
</svg>