<svg width="40" height="40" viewBox="0 0 40 40" fill="none" xmlns="http://www.w3.org/2000/svg">
  <rect width="40" height="40" rx="20" fill="none"/>
  <path d="M20 8C14.4772 8 10 12.4772 10 18C10 23.5228 14.4772 28 20 28C25.5228 28 30 23.5228 30 18C30 12.4772 25.5228 8 20 8Z" stroke="white" stroke-width="2"/>
  <path d="M20 12V14" stroke="white" stroke-width="2" stroke-linecap="round"/>
  <path d="M20 22V24" stroke="white" stroke-width="2" stroke-linecap="round"/>
  <path d="M14 18H16" stroke="white" stroke-width="2" stroke-linecap="round"/>
  <path d="M24 18H26" stroke="white" stroke-width="2" stroke-linecap="round"/>
  <path d="M15.8 13.8L17.2 15.2" stroke="white" stroke-width="2" stroke-linecap="round"/>
  <path d="M22.8 20.8L24.2 22.2" stroke="white" stroke-width="2" stroke-linecap="round"/>
  <path d="M15.8 22.2L17.2 20.8" stroke="white" stroke-width="2" stroke-linecap="round"/>
  <path d="M22.8 15.2L24.2 13.8" stroke="white" stroke-width="2" stroke-linecap="round"/>
  <path d="M30 28L34 32" stroke="white" stroke-width="2" stroke-linecap="round"/>
</svg>